<?xml version="1.0" encoding="UTF-8" standalone="no"?>
<!DOCTYPE svg PUBLIC "-//W3C//DTD SVG 1.1//EN"
 "http://www.w3.org/Graphics/SVG/1.1/DTD/svg11.dtd">
<!-- Generated by graphviz version 2.38.0 (20140413.2041)
 -->
<!-- Title: graphname Pages: 1 -->
<svg width="422pt" height="98pt"
 viewBox="0.00 0.00 422.00 98.00" xmlns="http://www.w3.org/2000/svg" xmlns:xlink="http://www.w3.org/1999/xlink">
<g id="graph0" class="graph" transform="scale(1 1) rotate(0) translate(4 94)">
<title>graphname</title>
<polygon fill="white" stroke="none" points="-4,4 -4,-94 418,-94 418,4 -4,4"/>
<!-- a -->
<g id="node1" class="node"><title>a</title>
<ellipse fill="none" stroke="black" cx="27" cy="-45" rx="27" ry="18"/>
<text text-anchor="middle" x="27" y="-41.3" font-family="Times New Roman,serif" font-size="14.00">a</text>
</g>
<!-- b -->
<g id="node2" class="node"><title>b</title>
<ellipse fill="none" stroke="black" cx="117" cy="-45" rx="27" ry="18"/>
<text text-anchor="middle" x="117" y="-41.3" font-family="Times New Roman,serif" font-size="14.00">b</text>
</g>
<!-- a&#45;&gt;b -->
<g id="edge1" class="edge"><title>a&#45;&gt;b</title>
<path fill="none" stroke="black" d="M54.4029,-45C62.3932,-45 71.3106,-45 79.8241,-45"/>
<polygon fill="black" stroke="black" points="79.919,-48.5001 89.919,-45 79.919,-41.5001 79.919,-48.5001"/>
</g>
<!-- c -->
<g id="node3" class="node"><title>c</title>
<ellipse fill="none" stroke="black" cx="207" cy="-72" rx="27" ry="18"/>
<text text-anchor="middle" x="207" y="-68.3" font-family="Times New Roman,serif" font-size="14.00">c</text>
</g>
<!-- b&#45;&gt;c -->
<g id="edge2" class="edge"><title>b&#45;&gt;c</title>
<path fill="none" stroke="black" d="M142.046,-52.3779C151.435,-55.2586 162.362,-58.6112 172.5,-61.7215"/>
<polygon fill="black" stroke="black" points="171.701,-65.1373 182.287,-64.7245 173.754,-58.4452 171.701,-65.1373"/>
</g>
<!-- d -->
<g id="node6" class="node"><title>d</title>
<ellipse fill="none" stroke="black" cx="207" cy="-18" rx="27" ry="18"/>
<text text-anchor="middle" x="207" y="-14.3" font-family="Times New Roman,serif" font-size="14.00">d</text>
</g>
<!-- b&#45;&gt;d -->
<g id="edge5" class="edge"><title>b&#45;&gt;d</title>
<path fill="none" stroke="black" d="M142.046,-37.6221C151.435,-34.7414 162.362,-31.3888 172.5,-28.2785"/>
<polygon fill="black" stroke="black" points="173.754,-31.5548 182.287,-25.2755 171.701,-24.8627 173.754,-31.5548"/>
</g>
<!-- e -->
<g id="node4" class="node"><title>e</title>
<ellipse fill="none" stroke="black" cx="297" cy="-72" rx="27" ry="18"/>
<text text-anchor="middle" x="297" y="-68.3" font-family="Times New Roman,serif" font-size="14.00">e</text>
</g>
<!-- c&#45;&gt;e -->
<g id="edge3" class="edge"><title>c&#45;&gt;e</title>
<path fill="none" stroke="black" d="M234.403,-72C242.393,-72 251.311,-72 259.824,-72"/>
<polygon fill="black" stroke="black" points="259.919,-75.5001 269.919,-72 259.919,-68.5001 259.919,-75.5001"/>
</g>
<!-- f -->
<g id="node5" class="node"><title>f</title>
<ellipse fill="none" stroke="black" cx="387" cy="-72" rx="27" ry="18"/>
<text text-anchor="middle" x="387" y="-68.3" font-family="Times New Roman,serif" font-size="14.00">f</text>
</g>
<!-- e&#45;&gt;f -->
<g id="edge4" class="edge"><title>e&#45;&gt;f</title>
<path fill="none" stroke="black" d="M324.403,-72C332.393,-72 341.311,-72 349.824,-72"/>
<polygon fill="black" stroke="black" points="349.919,-75.5001 359.919,-72 349.919,-68.5001 349.919,-75.5001"/>
</g>
</g>
</svg>
